<svg id="Layer_1" data-name="Layer 1" xmlns="http://www.w3.org/2000/svg" viewBox="0 0 285.554 90.621"><defs><style>.cls-1{fill:#00FFFF;}</style></defs><path class="cls-1" d="M44.179,90.621H14.326a2,2,0,0,1-2-2.088C12.337,88.319,13.1,66.961,0,54.12a2,2,0,0,1-.043-2.812C18.636,31.826,27.022,2.545,27.317,1.5A2,2,0,0,1,29.423.007a2.078,2.078,0,0,1,.249.038A2,2,0,0,1,31.188,1.5c.3,1.049,8.7,30.352,27.36,49.812a2,2,0,0,1-.043,2.812c-13.1,12.841-12.338,34.2-12.328,34.413a2,2,0,0,1-2,2.088Zm-27.841-4H42.167C42.274,80.83,43.578,64.4,54.344,52.67,42.817,40.084,35.355,24.405,31.252,13.956v18.96a2,2,0,0,1-4,0V13.956C23.149,24.405,15.688,40.084,4.161,52.67,14.927,64.4,16.23,80.83,16.338,86.621Z" transform="translate(0.6)"/><path class="cls-1" d="M29.252,39.69s2.142,8.549,3.835,10.242,10.242,3.834,10.242,3.834-8.6,2.191-10.242,3.835-3.835,10.242-3.835,10.242-2.441-8.85-3.834-10.242-10.242-3.835-10.242-3.835,8.88-2.471,10.242-3.834S29.252,39.69,29.252,39.69Z" transform="translate(0.6)"/><path class="cls-1" d="M44.776,82H13.8a2,2,0,1,1,0-4H44.776a2,2,0,0,1,0,4Z" transform="translate(0.6)"/><path class="cls-1" d="M102.918,61.713A11.268,11.268,0,0,1,101.5,65.33a9.611,9.611,0,0,1-2.316,2.605,12.844,12.844,0,0,1-2.991,1.688,15.1,15.1,0,0,1-3.328.941,22.3,22.3,0,0,1-3.5.265,13.975,13.975,0,0,1-6.294-1.375,11.8,11.8,0,0,1-4.462-3.738,17.831,17.831,0,0,1-2.58-5.4,22.791,22.791,0,0,1-.893-6.463A23.826,23.826,0,0,1,76,47.291a17.182,17.182,0,0,1,2.581-5.4,11.785,11.785,0,0,1,4.51-3.714,14.48,14.48,0,0,1,6.367-1.35A18.661,18.661,0,0,1,96,37.861a10.236,10.236,0,0,1,4.461,3.111,10.514,10.514,0,0,1,2.171,5.065,2,2,0,0,1-.217,1.278,1.583,1.583,0,0,1-.844.748,2.867,2.867,0,0,1-1.11.169,1.63,1.63,0,0,1-1.037-.435,1.987,1.987,0,0,1-.6-1.134q-.916-5.979-9.357-5.98a10.654,10.654,0,0,0-4.823,1.036,8.194,8.194,0,0,0-3.281,2.895,13.664,13.664,0,0,0-1.784,4.172,20.854,20.854,0,0,0-.579,5.065,20.428,20.428,0,0,0,.579,4.968,13.664,13.664,0,0,0,1.784,4.172,8.594,8.594,0,0,0,3.256,2.943,10.012,10.012,0,0,0,4.751,1.085A16.072,16.072,0,0,0,92.5,66.73a13.923,13.923,0,0,0,2.87-.917,6.425,6.425,0,0,0,2.436-1.881,7.16,7.16,0,0,0,1.4-3.039,1.941,1.941,0,0,1,.386-.844,1.411,1.411,0,0,1,.651-.482,3.059,3.059,0,0,1,.8-.145,1.589,1.589,0,0,1,.82.169,2.973,2.973,0,0,1,.676.458,1.446,1.446,0,0,1,.409.7A1.8,1.8,0,0,1,102.918,61.713Z" transform="translate(0.6)"/><path class="cls-1" d="M129.5,55.828V68.8a1.733,1.733,0,0,1-.94,1.688,2,2,0,0,1-1.906,0,1.725,1.725,0,0,1-.964-1.688V55.828a7.047,7.047,0,0,0-.748-3.4,4.6,4.6,0,0,0-1.929-1.978,12.122,12.122,0,0,0-2.7-.964,11.164,11.164,0,0,0-3.112-.29q-1.591.072-3.087.024V68.8a1.778,1.778,0,0,1-.964,1.713,1.963,1.963,0,0,1-1.93,0,1.778,1.778,0,0,1-.964-1.713V37.933a1.755,1.755,0,0,1,.6-1.423,1.99,1.99,0,0,1,2.652,0,1.758,1.758,0,0,1,.6,1.423v7.476a23.116,23.116,0,0,1,3.5-.024q1.81.122,3.521.314a10.106,10.106,0,0,1,3.232.916,10.41,10.41,0,0,1,2.653,1.786,7.351,7.351,0,0,1,1.809,2.965A13.367,13.367,0,0,1,129.5,55.828Z" transform="translate(0.6)"/><path class="cls-1" d="M156.94,45.409a1.833,1.833,0,0,1,1.375.579,1.892,1.892,0,0,1,.555,1.351V68.8A1.787,1.787,0,0,1,158,70.444a1.955,1.955,0,0,1-1.809.168,1.743,1.743,0,0,1-1.132-1.422,12.484,12.484,0,0,1-5.163,1.543,11.8,11.8,0,0,1-5.064-.7,14.442,14.442,0,0,1-4.292-2.532,11.671,11.671,0,0,1-3.063-4.124,12.571,12.571,0,0,1-1.134-5.282,12.321,12.321,0,0,1,1.857-6.584,12.646,12.646,0,0,1,4.992-4.654,11.329,11.329,0,0,1,3.3-1.085,23.554,23.554,0,0,1,3.064-.411q1.107-.047,3.955,0T156.94,45.409Zm-1.929,19.1V49.22q-2.025-.1-4.051-.048a25.641,25.641,0,0,0-3.715.338,8.372,8.372,0,0,0-5.788,4,8.9,8.9,0,0,0-1.23,3.618,7.964,7.964,0,0,0,.386,3.617,10.437,10.437,0,0,0,1.737,3.087,8.2,8.2,0,0,0,2.894,2.243,8.528,8.528,0,0,0,3.737.844A8.392,8.392,0,0,0,155.011,64.511Z" transform="translate(0.6)"/><path class="cls-1" d="M181.057,45.988a1.762,1.762,0,0,1,1.278,1.448,1.958,1.958,0,0,1-.6,1.808,1.773,1.773,0,0,1-1.88.41,8.586,8.586,0,0,0-4.077-.313,6.29,6.29,0,0,0-3.449,1.326,3.642,3.642,0,0,0-1.2,2.267V68.8a1.779,1.779,0,0,1-.965,1.713,1.962,1.962,0,0,1-1.929,0,1.777,1.777,0,0,1-.965-1.713V47.339a1.771,1.771,0,0,1,.82-1.592,1.955,1.955,0,0,1,1.761-.217,1.723,1.723,0,0,1,1.181,1.327,11.639,11.639,0,0,1,4.751-1.375A13.329,13.329,0,0,1,181.057,45.988Z" transform="translate(0.6)"/><path class="cls-1" d="M196.154,45.651a1.546,1.546,0,0,1,1.5.843,1.8,1.8,0,0,1,0,1.713,1.536,1.536,0,0,1-1.5.868H193.02V66.054a1.433,1.433,0,0,0,.1.724,1.286,1.286,0,0,0,.675.1,1.737,1.737,0,0,1,1.664.965,1.962,1.962,0,0,1,0,1.929,1.739,1.739,0,0,1-1.664.965,4.721,4.721,0,0,1-3.376-1.182,4.574,4.574,0,0,1-1.254-3.5V49.075h-.676a1.533,1.533,0,0,1-1.5-.868,1.8,1.8,0,0,1,0-1.713,1.542,1.542,0,0,1,1.5-.843h.676V37.885a1.736,1.736,0,0,1,.964-1.664,1.963,1.963,0,0,1,1.93,0,1.74,1.74,0,0,1,.965,1.664v7.766Z" transform="translate(0.6)"/><path class="cls-1" d="M219.936,63.015a1.845,1.845,0,0,1,.65-1.085,1.554,1.554,0,0,1,1.061-.386,3.249,3.249,0,0,1,1.085.241,1.584,1.584,0,0,1,.821.8,1.853,1.853,0,0,1,.144,1.254,7.7,7.7,0,0,1-2.243,4.124,9.269,9.269,0,0,1-3.737,2.219,15.334,15.334,0,0,1-4.39.6,10.455,10.455,0,0,1-5.041-1.182,9.308,9.308,0,0,1-3.448-3.087,14.293,14.293,0,0,1-1.881-4.317,15.345,15.345,0,0,1-.482-4.823,18.661,18.661,0,0,1,.868-4.655,11.058,11.058,0,0,1,2.025-3.786,9.94,9.94,0,0,1,8.056-3.522q5.546,0,8.176,3.281t2.629,8.971a1.9,1.9,0,0,1-1.93,1.93H206.381a9.5,9.5,0,0,0,2.051,5.306,6.052,6.052,0,0,0,4.9,2.025Q219.066,66.922,219.936,63.015ZM208.311,51.391a8.349,8.349,0,0,0-1.785,4.341h13.795a7.874,7.874,0,0,0-1.929-4.848q-1.593-1.615-4.968-1.615A6.305,6.305,0,0,0,208.311,51.391Z" transform="translate(0.6)"/><path class="cls-1" d="M245.45,45.988a1.764,1.764,0,0,1,1.279,1.448,1.958,1.958,0,0,1-.6,1.808,1.775,1.775,0,0,1-1.881.41,8.581,8.581,0,0,0-4.076-.313,6.287,6.287,0,0,0-3.449,1.326,3.637,3.637,0,0,0-1.205,2.267V68.8a1.78,1.78,0,0,1-.965,1.713,1.963,1.963,0,0,1-1.93,0,1.779,1.779,0,0,1-.965-1.713V47.339a1.772,1.772,0,0,1,.821-1.592,1.953,1.953,0,0,1,1.76-.217,1.725,1.725,0,0,1,1.182,1.327,11.629,11.629,0,0,1,4.751-1.375A13.322,13.322,0,0,1,245.45,45.988Z" transform="translate(0.6)"/><path class="cls-1" d="M256.641,41.647a1.731,1.731,0,0,1-.965,1.689,2.054,2.054,0,0,1-1.93,0,1.729,1.729,0,0,1-.965-1.689,1.967,1.967,0,0,1,.386-1.23,1.6,1.6,0,0,1,.965-.627,2.709,2.709,0,0,1,1.134,0,1.7,1.7,0,0,1,.964.627A1.9,1.9,0,0,1,256.641,41.647Zm-3.86,5.692a1.7,1.7,0,0,1,.6-1.374,1.987,1.987,0,0,1,2.652,0,1.7,1.7,0,0,1,.6,1.374V68.8a1.78,1.78,0,0,1-.965,1.713,1.963,1.963,0,0,1-1.93,0,1.779,1.779,0,0,1-.965-1.713Z" transform="translate(0.6)"/><path class="cls-1" d="M274.391,55.153q1.5.386,2.243.6t2.05.651a13.628,13.628,0,0,1,2.026.82,17.525,17.525,0,0,1,1.664,1.037,4.938,4.938,0,0,1,1.4,1.375,8.922,8.922,0,0,1,.821,1.712,6.209,6.209,0,0,1,.361,2.146,5.953,5.953,0,0,1-1.64,4.245,8.841,8.841,0,0,1-4.027,2.436,18.757,18.757,0,0,1-5.282.7,13.027,13.027,0,0,1-6.825-1.592,6.7,6.7,0,0,1-3.207-4.774,1.8,1.8,0,0,1,.168-1.278,1.707,1.707,0,0,1,.844-.773,2.554,2.554,0,0,1,1.085-.192,1.7,1.7,0,0,1,1.037.433,1.9,1.9,0,0,1,.627,1.086q.579,3.281,6.271,3.28a18.05,18.05,0,0,0,1.881-.1,11.815,11.815,0,0,0,1.882-.362,8.142,8.142,0,0,0,1.688-.652,3.354,3.354,0,0,0,1.182-1.037A2.43,2.43,0,0,0,281.1,63.5a2.488,2.488,0,0,0-.289-1.2,2.889,2.889,0,0,0-.917-.965q-.627-.435-1.206-.772a8.533,8.533,0,0,0-1.64-.675q-1.062-.337-1.713-.53t-1.905-.531q-1.254-.29-1.9-.483t-1.785-.578a13,13,0,0,1-1.736-.7q-.6-.312-1.4-.82a4.074,4.074,0,0,1-1.182-1.061,5.974,5.974,0,0,1-.675-1.326,4.632,4.632,0,0,1-.289-1.64q0-6.8,10.418-6.8,8.394,0,9.551,6.415a1.888,1.888,0,0,1-.145,1.279,1.6,1.6,0,0,1-.82.772,2.61,2.61,0,0,1-1.109.193,1.72,1.72,0,0,1-1.062-.434,1.933,1.933,0,0,1-.627-1.134,3.361,3.361,0,0,0-1.687-2.508,9,9,0,0,0-4.1-.723q-1.35,0-2.363.095a11.929,11.929,0,0,0-2.05.387,3.21,3.21,0,0,0-1.592.916,2.246,2.246,0,0,0-.555,1.544,1.028,1.028,0,0,0,.217.627,2.189,2.189,0,0,0,.7.555,9.751,9.751,0,0,0,.942.458q.458.194,1.3.458t1.375.41Q273.378,54.865,274.391,55.153Z" transform="translate(0.6)"/></svg>