<svg id="Layer_1" data-name="Layer 1" xmlns="http://www.w3.org/2000/svg" viewBox="0 0 59.705 90.621"><defs><style>.cls-1{fill:#fff;}</style></defs><path class="cls-1" d="M58.548,51.308C39.89,31.848,31.484,2.545,31.188,1.5A2,2,0,0,0,29.672.045a2.078,2.078,0,0,0-.249-.038A2,2,0,0,0,27.317,1.5c-.3,1.049-8.681,30.33-27.36,49.812A2,2,0,0,0,0,54.12c13.1,12.841,12.337,34.2,12.328,34.413a2,2,0,0,0,2,2.088H44.179a2,2,0,0,0,2-2.088,52.419,52.419,0,0,1,.478-7.868A2,2,0,0,0,46.776,80c0-.047-.011-.092-.014-.139C47.816,72.439,50.7,61.769,58.505,54.12A2,2,0,0,0,58.548,51.308ZM16.338,86.621c-.022-1.155-.093-2.739-.275-4.619H42.442c-.183,1.88-.254,3.464-.275,4.619ZM42.957,78H15.548c-1.2-7.471-4.16-17.459-11.387-25.332C15.688,40.084,23.149,24.405,27.252,13.956v18.96a2,2,0,0,0,4,0V13.956c4.1,10.449,11.565,26.128,23.092,38.714C47.117,60.543,44.157,70.531,42.957,78Z" transform="translate(0.6 0)"/><path class="cls-1" d="M25.418,49.932c-1.362,1.363-10.242,3.834-10.242,3.834s8.85,2.442,10.242,3.835,3.834,10.242,3.834,10.242,2.191-8.6,3.835-10.242,10.242-3.835,10.242-3.835-8.549-2.141-10.242-3.834S29.252,39.69,29.252,39.69,26.781,48.57,25.418,49.932Z" transform="translate(0.6 0)"/></svg>